<svg width="512" height="512" viewBox="0 0 512 512" xmlns="http://www.w3.org/2000/svg"><rect width="512" height="512" fill="#F0F8FF"/><path d="M146 512V320c0-100 110-150 220 0v192z" fill="#FDEBD0" stroke="#5D4037" stroke-width="8"/><path d="M256 220v40l14-10" fill="none" stroke="#5D4037" stroke-width="8" stroke-linecap="round" stroke-linejoin="round"/><path d="M216 295h80" stroke="#F06292" stroke-width="12" stroke-linecap="round"/><line x1="256" y1="40" x2="256" y2="472" stroke="#BDBDBD" stroke-width="4" stroke-dasharray="8,8"/><text x="80" y="120" font-family="sans-serif" font-size="96" font-weight="bold" fill="#5D4037" text-anchor="middle">b</text><g><path d="M190 370l12 12-12 12 12 12-12 12" stroke="#FFD54F" stroke-width="16" fill="none" stroke-linecap="round" stroke-linejoin="round"/><path d="M190 370l12 12-12 12 12 12-12 12" stroke="#FFC107" stroke-width="7" fill="none" stroke-linecap="round" stroke-linejoin="round"/></g><text x="432" y="120" font-family="sans-serif" font-size="96" font-weight="bold" fill="#5D4037" text-anchor="middle">p</text><g><path d="M300 285c15-15 40-15 55 0" fill="none" stroke="#4FC3F7" stroke-width="8" stroke-linecap="round"/><path d="M305 295c20 0 40 0 60 0" fill="none" stroke="#4FC3F7" stroke-width="8" stroke-linecap="round"/><path d="M300 305c15 15 40 15 55 0" fill="none" stroke="#4FC3F7" stroke-width="8" stroke-linecap="round"/></g></svg>