<svg width="512" height="512" viewBox="0 0 512 512" xmlns="http://www.w3.org/2000/svg"><rect width="512" height="512" fill="#F0FAFF"/><path d="M256 50 V462" stroke="#BCCFD9" stroke-width="4" stroke-dasharray="10 10"/><path d="M186 480 C166 320 346 320 326 480" fill="#FFDAB9" stroke="#4A4A4A" stroke-width="10"/><path d="M226 480 V512 M286 480 V512" stroke="#4A4A4A" stroke-width="10" stroke-linecap="round"/><path d="M246 330 C256 310 266 330" fill="none" stroke="#4A4A4A" stroke-width="10" stroke-linecap="round"/><path d="M226 370 H286" stroke="#E57373" stroke-width="12" stroke-linecap="round"/><text x="128" y="180" font-family="sans-serif" font-size="140" font-weight="bold" fill="#4A4A4A" text-anchor="middle">b</text><g stroke-linecap="round" stroke-linejoin="round"><path d="M216 445 l 10-15 -10-15 10-15" fill="none" stroke="#FFD54F" stroke-width="14"/><path d="M216 445 l 10-15 -10-15 10-15" fill="none" stroke="#FFF59D" stroke-width="6"/></g><text x="384" y="180" font-family="sans-serif" font-size="140" font-weight="bold" fill="#4A4A4A" text-anchor="middle">p</text><g fill="none" stroke-linecap="round"><path d="M290 370 c 20 -15 45 -10 60 10" stroke="#81D4FA" stroke-width="12"/><path d="M295 370 c 25 5 45 20 55 40" stroke="#B3E5FC" stroke-width="8"/></g></svg>