<svg width="512" height="512" viewBox="0 0 512 512" xmlns="http://www.w3.org/2000/svg"><rect width="512" height="512" fill="#E0F2F1"/><path d="M156,220 C166,180 346,180 356,220 C396,250 396,290 356,320 C346,360 166,360 156,320 C116,290 116,250 156,220 Z" fill="#FF8A80"/><path d="M246,242 L256,220 L266,242 L291,245 L271,262 L281,285 L256,275 L231,285 L241,262 L221,245 Z" fill="#FFD600"/><path d="M248,252 L256,240 L264,252 L276,254 L266,262 L270,275 L256,268 L242,275 L246,262 L236,254 Z" fill="#FFAB00"/><path d="M240,262 Q256,250 272,262 Q256,274 240,262 Z" fill="#B71C1C"/><g fill="#263238"><path d="M438.2,475.4c-11.1,0-19.8-8.4-19.8-20.4s8.7-20.4,19.8-20.4c5.5,0,10.2,2,13.8,5.5l-5.8,6.9c-2.4-2.3-5.5-3.6-8-3.6c-6.1,0-10.8,4.6-10.8,11.6s4.7,11.6,10.8,11.6c2.5,0,5.6-1.3,8-3.6l5.8,6.9C448.4,473.4,443.7,475.4,438.2,475.4z"/><path d="M458,434.6v40.8h9V456c2.8-3.5,6.8-5.4,11.2-5.4c8.8,0,15.2,6.8,15.2,16.2v18.6h9V466c0-10.2-6.2-17.2-15.8-17.2c-4.5,0-8.5,2.1-11.2,6v-20.2H458z"/></g></svg>