<svg width="512" height="512" viewBox="0 0 512 512" xmlns="http://www.w3.org/2000/svg"><rect width="512" height="512" fill="#E0F2F1"/><path fill="#FF6B6B" d="M156,270 C126,270 126,210 156,210 C206,190 306,190 356,210 C386,210 386,270 356,270 C306,290 206,290 156,270 Z"/><circle cx="256" cy="240" r="15" fill="#8C3B3B"/><path fill="#F79F1F" d="M256,170 l15,45 50,10 -40,30 20,50 -50,-25 -45,35 10,-50 -40,-35 55,-5z"/><path fill="#FFD166" d="M256,185 l10,35 40,5 -30,25 15,40 -40,-20 -35,30 5,-40 -35,-20 45,-10z"/><text x="256" y="400" font-family="sans-serif" font-size="80" font-weight="bold" fill="#263238" text-anchor="middle">ch</text></svg>