<svg width="512" height="512" viewBox="0 0 512 512" xmlns="http://www.w3.org/2000/svg"><rect width="512" height="512" fill="#F0F8FF"/><path d="M256 40V472" stroke="#DCDCDC" stroke-width="4"/><g><path d="M56 380C56 180 226 180 226 380" fill="#FDE3A7"/><path d="M131 260a10 12 0 0 1 20 0" fill="none" stroke="#E8C485" stroke-width="5" stroke-linecap="round"/><path d="M100 300q41-20 82 0" fill="#F79489"/><path d="M105 335q38 15 72 0" fill="#F79489"/><rect x="128" y="320" width="18" height="20" rx="4" fill="#FFF"/><rect x="150" y="320" width="18" height="20" rx="4" fill="#FFF"/><g fill="none" stroke="#BEE3F8" stroke-width="8" stroke-linecap="round" opacity=".9"><path d="M190 320c20-5 30 5 50 0"/><path d="M195 335c20-5 30 5 50 0"/></g><text x="128" y="440" font-family="sans-serif" font-size="90" font-weight="bold" fill="#4A4A4A" text-anchor="middle">f</text></g><g><path d="M286 380C286 180 456 180 456 380" fill="#FDE3A7"/><path d="M361 260a10 12 0 0 1 20 0" fill="none" stroke="#E8C485" stroke-width="5" stroke-linecap="round"/><path d="M330 320q56-5 102 0" stroke="#D97C72" stroke-width="4" fill="none" stroke-linecap="round"/><text x="384" y="440" font-family="sans-serif" font-size="90" font-weight="bold" fill="#4A4A4A" text-anchor="middle">p</text></g></svg>