<?xml version="1.0" encoding="UTF-8"?><svg width="512" height="512" viewBox="0 0 512 512" xmlns="http://www.w3.org/2000/svg"><rect width="512" height="512" fill="#E0F7FA"/><g stroke="#424242" stroke-width="6" stroke-linecap="round" stroke-linejoin="round"><path d="M378,482c-62,0-110-42-142-85-28-38-35-88-35-131,0-108,88-196,196-196s108,30,108,98c0,45-20,115-70,165-35,35-85,49-157,49Z" fill="#FFDAB9"/><path d="M201,266c0-43,7-93,35-131,32-43,70-85,142-85,56,0,97,28,119,65" fill="none"/><path d="M426,250c-10,0-18,8-18,18v22h-50v-70c0-5-4-9-9-9h-40c-5,0-9,4-9,9v100h126v-52c0-10-8-18-18-18Z" fill="#FFE4E1"/><path d="M408,250v40h-88v-90h30c5,0,9,4,9,9v41h49Z" fill="#F08080"/><path d="M408,250c-10,0-18,8-18,18v22h-20l-1,-40h39Z" fill="#FFFFFF"/><path d="M372,250h-12v40h12Z" fill="#FFFFFF" stroke-width="4"/><path d="M350,320c15-25,40-45,70-50" fill="none" stroke="#FF6B6B" stroke-width="8"/><path d="M330,380 l60-80" fill="none" stroke="#00BCD4" stroke-width="10"/><polygon points="390,300 415,325 385,330" fill="#00BCD4" stroke-width="0"/><text x="40" y="480" font-family="sans-serif" font-size="90" font-weight="bold" fill="#424242">l</text></g></svg>