<svg width="512" height="512" viewBox="0 0 512 512" xmlns="http://www.w3.org/2000/svg"><rect width="512" height="512" fill="#F0F4F8"/><g stroke="#455A64" stroke-width="8" stroke-linecap="round" stroke-linejoin="round"><path d="M256 480V32" fill="none"/><path fill="#FFDDC1" d="M256,480V32c-50,0-96,20-128,55s-52,80-52,130c0,70,40,130,100,160l-10,55Z"/><path fill="#FFEEDD" d="M170,210c-10,5-20,15-20,30s10,25,20,30c-20-5-35-15-35-30s15-25,35-30Z M170,210c0,0-40,40-40,100v80h126V320c-30-30-50-70-86-110Z"/><path fill="#F48FB1" d="M135,240c10,0,20,5,25,15c-5,20-20,30-40,30-10,0-15-5-15-15s15-30,30-30Z"/><path fill="#FFFFFF" d="M135,232v-12h25v12Z M135,288v12h25v-12Z"/><path fill="#EC407A" d="M175,320c-15-15-30-25-50-25s-30,10-30,25c0,20,25,30,50,30s30-10,30-30Z"/><path fill="#FFDDC1" d="M256,480V32c50,0,96,20,128,55s52,80,52,130c0,70-40,130-100,160l10,55Z"/><path fill="#FFEEDD" d="M342,210c10,5,20,15,20,30s-10,25-20,30c20-5,35-15,35-30s-15-25-35-30Z M342,210c0,0,40,40,40,100v80H256V320c30-30,50-70,86-110Z"/><path fill="#F48FB1" d="M377,240c-10,0-20,5-25,15c5,20,20,30,40,30c10,0,15-5,15-15s-15-30-30-30Z"/><path fill="#FFFFFF" d="M377,232v-12h-25v12Z M377,288v12h-25v-12Z"/><path d="M352,220c5,2,10,2,15,0" fill="none"/><path fill="#EC407A" d="M330,320c20-40,40-40,52-20l-2,10-30,8c-10,2-20-10-20-18Z"/></g><text x="45" y="475" font-family="sans-serif" font-size="96" font-weight="bold" fill="#37474F">r</text><text x="415" y="475" font-family="sans-serif" font-size="96" font-weight="bold" fill="#37474F">l</text></svg>