<svg width="512" height="512" viewBox="0 0 512 512" xmlns="http://www.w3.org/2000/svg"><rect width="512" height="512" fill="#E0F2F1"/><g><path d="M48,380 V220 C48,120 208,120 208,220 V380Z" fill="#FFDAB9"/><path d="M120,280 Q128,295 136,280" stroke="#E6B99E" stroke-width="6" fill="none" stroke-linecap="round"/><path d="M98,330 c0-20 60-20 60,0 c0,20 -60,20 -60,0z" fill="#E57373"/><circle cx="128" cy="330" r="8" fill="#C62828"/><text x="128" y="440" font-family="sans-serif" font-size="64" font-weight="bold" fill="#424242" text-anchor="middle">sh</text></g><g><path d="M304,380 V220 C304,120 464,120 464,220 V380Z" fill="#FFDAB9"/><path d="M376,280 Q384,295 392,280" stroke="#E6B99E" stroke-width="6" fill="none" stroke-linecap="round"/><rect x="354" y="325" width="60" height="10" fill="#FFFFFF" rx="2"/><path d="M369,325v10 M384,325v10 M399,325v10" stroke="#E0E0E0" stroke-width="1.5" stroke-linecap="round"/><path d="M344,325 q40,-12 80,0 l-2,5 q-38,-5 -76,0 l-2,-5z M344,335 q40,12 80,0 l-2,-5 q-38,5 -76,0 l-2,5z" fill="#E57373"/><text x="384" y="440" font-family="sans-serif" font-size="64" font-weight="bold" fill="#424242" text-anchor="middle">s</text></g></svg>