<svg width="512" height="512" viewBox="0 0 512 512" xmlns="http://www.w3.org/2000/svg"><rect width="512" height="512" fill="#F0F8FF"/><g transform="translate(0 20)"><ellipse cx="256" cy="256" rx="115" ry="45" fill="#c62828"/><path d="M196 281v-20a10 10 0 0 0-10-10h-100a10 10 0 0 0-10 10v20z" transform="translate(116 0)" fill="#fff"/><path d="M196 231v20a10 10 0 0 1-10 10h-100a10 10 0 0 1-10-10v-20z" transform="translate(116 0)" fill="#fff"/><path d="M226 246c15 15 45 15 60 0v20c-15 15-45 15-60 0z" fill="#f06292"/><path d="M146 236c0-50 220-50 220 0-60-10-160-10-220 0z" fill="#ff8a80"/><path d="M146 276c0 50 220 50 220 0-60 10-160 10-220 0z" fill="#ff8a80"/></g><g fill="none" stroke="#81d4fa" stroke-width="14" stroke-linecap="round"><path d="M384 248c12-12 28-12 40 0 8 8 12 8 20 0"/><path d="M394 268c12-12 28-12 40 0 8 8 12 8 20 0"/></g><circle cx="360" cy="220" r="25" fill="#fff" fill-opacity=".6"/><path d="M345 210a15 15 0 0 1 15-10" fill="none" stroke="#fff" stroke-width="4" stroke-linecap="round"/><text x="450" y="470" font-family="sans-serif" font-weight="bold" font-size="90" text-anchor="middle" fill="#455a64">th</text></svg>