<svg width="512" height="512" viewBox="0 0 512 512" xmlns="http://www.w3.org/2000/svg"><rect width="512" height="512" fill="#F1F8E9"/><path d="M140 512V320C140 180 372 180 372 320V512Z" fill="#FFDDC9"/><path d="M176 230c-10 40 170 40 160 0-20-50-120-50-160 0z" fill="#F48FB1"/><rect x="196" y="248" width="120" height="34" fill="#C62828" rx="17"/><rect x="198" y="248" width="116" height="15" fill="#FFF" rx="3"/><rect x="198" y="267" width="116" height="15" fill="#FFF" rx="3"/><rect x="241" y="263" width="30" height="4" fill="#EF9A9A" rx="2"/><g stroke="#FFEE58" stroke-width="14" stroke-linecap="round" fill="none"><path d="M220 380c10-15 25 15 35 0s25 15 35 0"/><path d="M230 410c10-15 25 15 35 0s25 15 35 0"/></g><text x="450" y="80" font-family="sans-serif" font-size="72" font-weight="bold" fill="#424242" text-anchor="middle">th</text></svg>