xml
<?xml version="1.0" encoding="UTF-8"?><svg width="512" height="512" viewBox="0 0 512 512" xmlns="http://www.w3.org/2000/svg"><rect width="512" height="512" fill="#E0F7FA"/><path d="M20 512V220C20 120 100 80 256 80s236 40 236 140v272z" fill="#FFCCBC"/><path d="M190 480q66 50 132 0" fill="none" stroke="#F4BBAA" stroke-width="15" stroke-linecap="round"/><path d="M256 0V512" stroke="#37474F" stroke-width="4" stroke-dasharray="10 10"/><g><path d="M90 340q83 60 160 0z" fill="#F06292"/><rect x="135" y="325" width="80" height="25" rx="8" fill="#FFF"/><path d="M90 320q83-50 160 0z" fill="#F06292"/><g stroke="#37474F" stroke-width="6" stroke-linecap="round" fill="none"><path d="M190 450c5-10 15 10 20 0"/><path d="M210 465c5-10 15 10 20 0"/></g><text x="60" y="180" font-family="sans-serif" font-size="120" font-weight="bold" fill="#37474F">v</text></g><g><path d="M270 320q88-30 176 0v30q-88 30-176 0z" fill="#F06292"/><path d="M270 335h176" stroke="#C2185B" stroke-width="4" stroke-linecap="round"/><g stroke="#37474F" stroke-width="6" stroke-linecap="round" fill="none"><path d="M300 450c5-10 15 10 20 0"/><path d="M320 465c5-10 15 10 20 0"/></g><text x="452" y="180" font-family="sans-serif" font-size="120" font-weight="bold" fill="#37474F" text-anchor="end">b</text></g></svg>