<svg width="512" height="512" viewBox="0 0 512 512" xmlns="http://www.w3.org/2000/svg"><rect width="512" height="512" fill="#FFF9E6"/><g><path d="M96 226c0 50 64 50 64 0 0-50-64-50-64 0z" fill="#E57373"/><path d="M104 226c0 40 48 40 48 0 0-40-48-40-48 0z" fill="#6D4C41"/><path d="M108 196q20-6 40 0v14q-20 6-40 0z" fill="#FFF"/><path d="M108 242q20 14 40 0v14q-20 6-40 0z" fill="#F06292"/></g><path d="M216 248h60v-8l20 16-20 16v-8h-60z" fill="#424242"/><g><path d="M320 246c30-25 122-25 152 0-30 25-122 25-152 0z" fill="#E57373"/><path d="M330 246c25-10 107-10 132 0v20c-25 10-107 10-132 0z" fill="#FFF"/><line x1="330" y1="256" x2="462" y2="256" stroke="#E57373" stroke-width="3"/></g><text x="256" y="420" font-family="sans-serif" font-weight="bold" font-size="90" text-anchor="middle" fill="#424242">a_e</text></svg>