<svg width="512" height="512" viewBox="0 0 512 512" xmlns="http://www.w3.org/2000/svg"><rect width="512" height="512" fill="#E6F7FF"/><g><path d="M225,240 C245,220 240,180 220,170 L215,140 C235,80 180,40 120,70 C50,100 20,200 50,280 C80,360 120,440 200,430 L200,300 C200,270 210,250 225,240Z" fill="#FFDDC1" stroke="#4A4A4A" stroke-width="6" stroke-linejoin="round"/><path d="M195,85 C130,55 50,120 50,200 C50,250 65,290 80,320 C90,280 120,180 180,120 C200,100 210,90 195,85Z" fill="#FFD1DC"/><path d="M225,240 L240,255 L220,330 C200,400 140,410 110,370 L120,360Z" fill="#FFDDC1" stroke="#4A4A4A" stroke-width="6" stroke-linejoin="round"/><path d="M125,365 C160,380 200,360 210,335Z" fill="#FF6B6B" stroke="#4A4A4A" stroke-width="4" stroke-linejoin="round"/><path d="M225,240 L215,245 L220,255 M220,330 L210,325 L215,315" fill="none" stroke="#FFF" stroke-width="6" stroke-linecap="round"/><rect x="190" y="248" width="30" height="80" fill="#FFD166" stroke="#4A4A4A" stroke-width="4" rx="5"/><text x="40" y="100" font-family="sans-serif" font-size="80" font-weight="bold" fill="#4A4A4A">a</text></g><g><path d="M481,240 C501,220 496,180 476,170 L471,140 C491,80 436,40 376,70 C306,100 276,200 306,280 C336,360 376,440 456,430 L456,300 C456,270 466,250 481,240Z" fill="#FFDDC1" stroke="#4A4A4A" stroke-width="6" stroke-linejoin="round"/><path d="M451,85 C386,55 306,120 306,200 C306,250 321,290 336,320 C346,280 376,180 436,120 C456,100 466,90 451,85Z" fill="#FFD1DC"/><path d="M481,240 L496,255 L476,290 C456,360 396,370 366,330 L376,320Z" fill="#FFDDC1" stroke="#4A4A4A" stroke-width="6" stroke-linejoin="round"/><path d="M381,325 C416,270 456,270 466,290Z" fill="#FF6B6B" stroke="#4A4A4A" stroke-width="4" stroke-linejoin="round"/><path d="M481,240 L471,245 L476,255 M476,290 L466,285 L471,275" fill="none" stroke="#FFF" stroke-width="6" stroke-linecap="round"/><rect x="446" y="248" width="30" height="40" fill="#FFD166" stroke="#4A4A4A" stroke-width="4" rx="5"/><text x="296" y="100" font-family="sans-serif" font-size="80" font-weight="bold" fill="#4A4A4A">e</text></g></svg>