<svg width="512" height="512" viewBox="0 0 512 512" xmlns="http://www.w3.org/2000/svg"><rect width="512" height="512" fill="#FFF9E6"/><path d="M256 100 A150 150 0 0 0 106 250 C120 380 240 412 256 412 Z" fill="#FFDAB9"/><path d="M256 100 A150 150 0 0 1 406 250 C392 390 272 452 256 452 Z" fill="#FFDAB9"/><path d="M170 335 Q208 345 246 335" fill="none" stroke="#4A4A4A" stroke-width="8" stroke-linecap="round"/><path d="M256 310 C290 310 310 330 310 365 C310 400 290 420 256 420 C222 420 202 400 202 365 C202 330 222 310 256 310 Z" fill="#B22222" stroke="#4A4A4A" stroke-width="6"/><rect x="212" y="310" width="88" height="15" fill="#FFF"/><path d="M226 418 Q256 390 286 418 C276 425 266 425 256 425 C246 425 236 425 226 418 Z" fill="#FF6B6B"/><circle cx="190" cy="220" r="15" fill="#4A4A4A"/><circle cx="322" cy="220" r="15" fill="#4A4A4A"/><path d="M246 260 C250 280 262 280 266 260" fill="none" stroke="#4A4A4A" stroke-width="6" stroke-linecap="round"/><path d="M106 250 A150 150 0 0 1 256 100 A150 150 0 0 1 406 250" fill="none" stroke="#4A4A4A" stroke-width="8" stroke-linecap="round"/><path d="M106 250 C120 380 240 412 256 412" fill="none" stroke="#4A4A4A" stroke-width="8" stroke-linecap="round"/><path d="M406 250 C392 390 272 452 256 452" fill="none" stroke="#4A4A4A" stroke-width="8" stroke-linecap="round"/><line x1="256" y1="40" x2="256" y2="472" stroke="#B0C4DE" stroke-width="4" stroke-dasharray="10 10"/><text x="120" y="360" font-family="sans-serif" font-size="80" font-weight="bold" fill="#333" text-anchor="middle">i</text><text x="400" y="360" font-family="sans-serif" font-size="80" font-weight="bold" fill="#333" text-anchor="middle">e</text></svg>