<svg width="512" height="512" viewBox="0 0 512 512" xmlns="http://www.w3.org/2000/svg"><rect fill="#E0F7FA" width="512" height="512"/><defs><clipPath id="a"><path d="M0 0h256v512H0z"/></clipPath><clipPath id="b"><path d="M256 0h256v512H256z"/></clipPath></defs><g><path fill="#8D6E63" d="M120 210c0-120 272-120 272 0 0-60-40-130-136-130S120 150 120 210z"/><path fill="#FFDAB9" d="M146 150c-16 100 14 330 110 330s126-230 110-330"/><circle fill="#FFDAB9" cx="140" cy="280" r="20"/><circle fill="#FFDAB9" cx="372" cy="280" r="20"/><circle fill="#fff" cx="195" cy="260" r="22"/><circle fill="#37474F" cx="195" cy="260" r="11"/><circle fill="#fff" cx="317" cy="260" r="22"/><circle fill="#37474F" cx="317" cy="260" r="11"/><path fill="none" stroke="#E5A073" stroke-width="6" stroke-linecap="round" d="M246 310c5 10 15 10 20 0"/></g><g clip-path="url(#a)"><path fill="#F06292" d="M116 360c70-40 140-40 140 0 0 40-70 60-140 20z"/><path fill="#fff" d="M126 360c60-20 130-20 130 0v20c0 20-70 20-130 0z"/></g><g clip-path="url(#b)"><path fill="#F06292" d="M256 370c40 20 80 15 110-5-10 10-60 15-110-5z"/></g><g fill="#37474F"><path d="M120.4 445.2c-8.8 0-15.2 6.4-15.2 15.6s6.4 15.6 15.2 15.6c5.6 0 10-2.4 12.8-6.4h.4v5.6h12.8V446h-12.8v5.6h-.4c-2.8-4.8-7.2-7.2-12.8-7.2zm.4 23.2c-3.6 0-6-2.4-6-6.8s2.4-6.8 6-6.8 6 2.4 6 6.8-2.4 6.8-6 6.8zM156.4 445.2c-8.8 0-15.2 6.4-15.2 15.6s6.4 15.6 15.2 15.6c5.6 0 10-2.4 12.8-6.4h.4v5.6h12.8V446h-12.8v5.6h-.4c-2.8-4.8-7.2-7.2-12.8-7.2zm.4 23.2c-3.6 0-6-2.4-6-6.8s2.4-6.8 6-6.8 6 2.4 6 6.8-2.4 6.8-6 6.8z"/><path d="M370 446v28.8h12.8V446H370zm6.4-16c-3.6 0-6.4 2.8-6.4 6.4s2.8 6.4 6.4 6.4 6.4-2.8 6.4-6.4-2.8-6.4-6.4-6.4z"/></g></svg>