<svg width="512" height="512" viewBox="0 0 512 512" xmlns="http://www.w3.org/2000/svg"><rect width="512" height="512" fill="#F0F8FF"/><g><path d="M96 512V256C96 114.6 416 114.6 416 256V512H96Z" fill="#FFDAB9"/><path d="M256,220 C246,245 266,245 256,220Z" fill="#F5CBA7"/><path d="M160,318 C220,340 292,340 352,318 C310,330 202,330 160,318Z" fill="#F5CBA7"/><path d="M165,280 H347 C350,280 350,290 347,290 H165 C162,290 162,280 165,280Z" fill="#FFFFFF"/><path d="M165,285 H347" stroke="#E0E0E0" stroke-width="2"/><path d="M160,265 C190,255 240,268 256,268 C272,268 322,255 352,265 C310,290 202,290 160,265Z" fill="#E57373"/><path d="M160,290 C220,325 292,325 352,290 C310,308 202,308 160,290Z" fill="#E57373"/><g fill="#424242"><circle cx="430" cy="420" r="14"/><rect x="420" y="440" width="20" height="50" rx="10"/></g></g></svg>