<svg width="512" height="512" viewBox="0 0 512 512" xmlns="http://www.w3.org/2000/svg"><rect width="512" height="512" fill="#E0F7FA"/><g transform="translate(128 256)"><path d="M-30 0A30 45 0 0 0 30 0A30 30 0 0 0-30 0Z" fill="#F48FB1"/><path d="M-24 0A24 36 0 0 0 24 0A24 24 0 0 0-24 0Z" fill="#B71C1C"/><path d="M-18 25A20 20 0 0 0 18 25Q0 35-18 25Z" fill="#F8BBD0"/></g><path d="M220 256h60m-22-10l22 10-22 10" fill="none" stroke="#78909C" stroke-width="10" stroke-linecap="round" stroke-linejoin="round"/><g transform="translate(384 256)"><path d="M-60 0C-40-20 40-20 60 0C40 20-40 20-60 0Z" fill="#F48FB1"/><path d="M-52 0C-35-12 35-12 52 0C35 12-35 12-52 0Z" fill="#FFFDE7"/><line x1="-52" y1="0" x2="52" y2="0" stroke="#E57373" stroke-width="3"/></g><text x="256" y="400" font-family="sans-serif" font-size="72" font-weight="bold" text-anchor="middle" fill="#37474F">a_e</text></svg>