<svg width="512" height="512" viewBox="0 0 512 512" xmlns="http://www.w3.org/2000/svg"><rect width="512" height="512" fill="#E0F2F1"/><g><circle cx="106" cy="290" r="25" fill="#FFCCBC"/><circle cx="406" cy="290" r="25" fill="#FFCCBC"/><circle cx="256" cy="290" r="150" fill="#FFCCBC"/><path d="M106,290 A150,150 0 0 1 406,290 C400,170 112,170 106,290 Z" fill="#8D6E63"/><circle cx="200" cy="270" r="28" fill="#fff"/><circle cx="312" cy="270" r="28" fill="#fff"/><circle cx="200" cy="270" r="14" fill="#212121"/><circle cx="312" cy="270" r="14" fill="#212121"/><circle cx="208" cy="262" r="5" fill="#fff"/><circle cx="320" cy="262" r="5" fill="#fff"/><ellipse cx="256" cy="385" rx="80" ry="100" fill="#C62828"/><path d="M196,455c20,20 80,20 120,0l-10,20c-25,25-75,25-100,0z" fill="#F06292"/><text x="60" y="460" font-family="sans-serif" font-size="100" font-weight="bold" fill="#424242">o</text></g></svg>