<svg width="512" height="512" viewBox="0 0 512 512" xmlns="http://www.w3.org/2000/svg"><rect width="256" height="512" fill="#A7D8E8"/><rect x="256" width="256" height="512" fill="#B2E0C8"/><path d="M120 190c0-110 280-110 280 0-20-30-60-50-110-40-50 10-110-10-150 20z" fill="#5D4037"/><path d="M145 160c-45 60-25 280 111 280s156-220 111-280c-27-40-199-40-222 0z" fill="#FDDDBB"/><g><path d="M150 240c20-20 60-20 80 0-20 20-60 20-80 0z" fill="#FFF"/><circle cx="190" cy="240" r="15" fill="#3A3A3A"/><circle cx="198" cy="235" r="5" fill="#FFF"/><path d="M256 330c-76 50-176 40-186-20 10-10 110-10 186 0z" fill="#E57373"/><path d="M74 312c26-17 106-17 182 2v18c-76-10-156-10-182-18z" fill="#FFF"/></g><g><path d="M282 245c18-5 58-5 80 0-22 15-62 15-80 0z" fill="#FFF"/><circle cx="322" cy="245" r="15" fill="#3A3A3A"/><circle cx="330" cy="240" r="5" fill="#FFF"/><path d="M256 320c44 20 104 15 134 0-5 5-89 28-134 8z" fill="#3A3A3A"/></g><path d="M256 270c9 15 0 30 0 30" fill="none" stroke="#D4B499" stroke-width="6" stroke-linecap="round"/><g fill="#3A3A3A"><path d="M95 448c0 11-9 20-20 20s-20-9-20-20 9-20 20-20c6.5 0 12.2 3.1 15.8 8H55v8h35.8c.4-1.3.8-2.6.8-4zM85 448c0-5.5-4.5-10-10-10s-10 4.5-10 10 4.5 10 10 10 10-4.5 10-10z"/><path d="M145 448c0 11-9 20-20 20s-20-9-20-20 9-20 20-20c6.5 0 12.2 3.1 15.8 8h-20.8v8h35.8c.4-1.3.8-2.6.8-4zM135 448c0-5.5-4.5-10-10-10s-10 4.5-10 10 4.5 10 10 10 10-4.5 10-10z"/><path d="M417 420a7 7 0 11-14 0 7 7 0 1114 0z"/><path d="M403 440v25a5 5 0 005 5h0a5 5 0 005-5v-25a5 5 0 00-5-5h0a5 5 0 00-5 5z"/></g></svg>