<svg width="512" height="512" viewBox="0 0 512 512" xmlns="http://www.w3.org/2000/svg"><rect width="512" height="512" fill="#F0F8FF"/><line x1="256" y1="40" x2="256" y2="472" stroke="#B0C4DE" stroke-width="3" stroke-dasharray="6,6"/><path d="M160 330c0 50 192 50 192 0z" fill="#FFDAB9" stroke="#4A4A4A" stroke-width="4"/><rect x="146" y="150" width="220" height="200" rx="110" fill="#FFDAB9" stroke="#4A4A4A" stroke-width="4"/><path d="M146 260a110 110 0 0 1 220 0V150a110 110 0 0 0-220 0z" fill="#8B4513"/><circle cx="210" cy="230" r="10" fill="#4A4A4A"/><circle cx="302" cy="230" r="10" fill="#4A4A4A"/><line x1="190" y1="290" x2="322" y2="290" stroke="#4A4A4A" stroke-width="4"/><path d="M200 285v10m15-10v10m15-10v10m15-10v10m22-10v10m15-10v10m15-10v10m15-10v10" stroke="#FFF" stroke-width="3"/><g><path d="m180 350 8-8-8-8 8-8m12 18 8-8-8-8 8-8m12 8 8-8-8-8 8-8" fill="none" stroke="#FFD700" stroke-width="5" stroke-linecap="round"/><text x="128" y="120" font-family="sans-serif" font-size="90" font-weight="bold" text-anchor="middle" fill="#4A4A4A">z</text></g><g><path d="M325 280q20-10 40 0m-35 15q25-10 50 0m-45 15q20-10 40 0" fill="none" stroke="#87CEEB" stroke-width="5" stroke-linecap="round"/><g transform="translate(400 360) scale(.7)"><path d="M0-30C20-30 20-10 0-10S-20 10 0 10" fill="#90EE90" stroke="#3CB371" stroke-width="4" stroke-linecap="round"/><circle cx="-5" cy="-22" r="2" fill="#000"/><path d="m-1 10 5 5m-5-5 5-5" fill="none" stroke="#FF4136" stroke-width="2" stroke-linecap="round"/></g><text x="384" y="120" font-family="sans-serif" font-size="90" font-weight="bold" text-anchor="middle" fill="#4A4A4A">s</text></g></svg>